<svg width="231" height="231" viewBox="0 0 231 231" fill="none" xmlns="http://www.w3.org/2000/svg">
<path d="M134.516 170.243C134.558 171.218 134.516 172.176 134.398 173.101C134.239 174.395 133.936 175.647 133.506 176.841C133.069 178.076 132.496 179.261 131.806 180.413C131.108 181.564 130.283 182.674 129.332 183.732C128.381 184.791 127.312 185.792 126.151 186.725C124.981 187.666 123.701 188.548 122.321 189.355C120.949 190.17 119.476 190.927 117.919 191.608C116.447 192.255 114.881 192.851 113.232 193.398C111.599 193.936 109.899 194.406 108.131 194.818C106.372 195.23 104.554 195.575 102.686 195.86C100.843 196.138 98.9409 196.356 96.9715 196.507C90.693 196.995 83.859 196.802 76.7473 195.81C70.1153 194.877 63.2477 193.246 56.3716 190.818C50.556 188.758 44.732 186.136 39.0342 182.884C36.7703 181.589 34.5147 180.194 32.2928 178.69C33.4543 180.219 34.6662 181.724 35.9202 183.203C39.5055 187.414 43.4443 191.364 47.7113 194.995C52.3403 198.936 57.3647 202.508 62.7427 205.635C67.9944 208.694 73.5996 211.333 79.5162 213.502C85.2645 215.611 91.0633 217.174 96.8621 218.233C102.812 219.318 108.771 219.872 114.671 219.923C120.663 219.973 126.622 219.494 132.488 218.527C138.287 217.569 143.976 216.132 149.489 214.233L149.775 213.964C149.968 213.779 150.145 213.602 150.313 213.434C150.482 213.266 150.667 213.073 150.861 212.863C151.063 212.653 151.231 212.459 151.382 212.283C151.551 212.09 151.702 211.905 151.854 211.72C151.988 211.56 152.131 211.375 152.291 211.165C152.443 210.963 152.586 210.778 152.704 210.602C152.822 210.434 152.956 210.241 153.099 210.03L153.183 209.913C153.89 208.82 154.48 207.686 154.942 206.526C155.397 205.374 155.742 204.164 155.969 202.903C156.196 201.634 156.297 200.365 156.272 199.088C156.247 197.793 156.095 196.474 155.818 195.138C155.481 193.515 154.959 191.86 154.244 190.204C153.537 188.548 152.645 186.893 151.567 185.245C150.499 183.598 149.245 181.959 147.805 180.345C146.408 178.774 144.818 177.202 143.017 175.639C142.697 175.362 142.478 175.177 142.369 175.084C142.175 174.924 141.956 174.748 141.721 174.572C141.451 174.361 141.232 174.193 141.056 174.067C140.795 173.882 140.559 173.714 140.349 173.571C140.105 173.395 139.861 173.235 139.6 173.067C139.313 172.882 139.044 172.714 138.8 172.563C138.539 172.403 138.27 172.243 138.001 172.084C137.857 172 137.554 171.832 137.117 171.579L136.368 171.168L136.343 171.21L134.819 170.361C134.752 170.327 134.693 170.302 134.626 170.277L134.541 170.235L134.516 170.243ZM81.5445 16.7586L81.2921 16.9939C81.1069 17.1788 80.9386 17.3385 80.7787 17.4982C80.6356 17.6411 80.4841 17.7924 80.3326 17.9521C80.2232 18.0697 80.0801 18.221 79.9034 18.4227L79.7856 18.5572C79.7603 18.5824 79.8024 18.5404 79.7856 18.5572C79.7266 18.6244 79.6677 18.6917 79.6341 18.7253L79.592 18.7841C79.4237 18.9858 79.2722 19.1623 79.1375 19.322C78.9608 19.5405 78.8177 19.717 78.7251 19.8431C78.582 20.028 78.4558 20.2045 78.338 20.3726C78.2201 20.5407 78.0939 20.734 77.9508 20.9441L77.8751 21.0618C77.1681 22.1544 76.579 23.289 76.1161 24.4488C75.6532 25.6254 75.3081 26.8357 75.0809 28.0712C74.8537 29.3403 74.7527 30.6094 74.7779 31.8869C74.8032 33.1728 74.9546 34.5007 75.2324 35.837C75.569 37.4591 76.0908 39.1148 76.8062 40.7705C77.5132 42.4262 78.4053 44.0819 79.4826 45.7292C80.5514 47.3765 81.8055 49.0154 83.2446 50.6291C84.6417 52.2007 86.2324 53.7724 88.0334 55.3356C88.3533 55.613 88.5637 55.7979 88.6815 55.8904C88.8751 56.05 89.0939 56.2265 89.338 56.4114C89.5063 56.5375 89.7335 56.7056 90.0113 56.9157C90.2722 57.1006 90.4994 57.2687 90.7098 57.4116C90.9539 57.5881 91.1979 57.7478 91.4588 57.9159C91.745 58.1008 92.0143 58.2689 92.2584 58.4201C92.5193 58.5798 92.7886 58.7395 93.0663 58.9076C93.2178 58.9916 93.5124 59.1597 93.9501 59.4035C94.4382 59.6808 94.8253 59.8909 95.0694 60.017C95.3976 60.1935 95.7175 60.3616 96.0289 60.5129L96.2982 60.5885L96.4244 60.6978L96.517 60.7398C96.4833 59.7817 96.517 58.8236 96.6432 57.8738C96.8032 56.5795 97.1061 55.3273 97.5354 54.1338C97.973 52.9067 98.5453 51.7133 99.2354 50.5618C99.9256 49.4188 100.75 48.3178 101.71 47.2504C102.669 46.1831 103.73 45.1829 104.9 44.25C106.078 43.3087 107.349 42.4262 108.729 41.6194C110.101 40.8041 111.574 40.0477 113.131 39.3669C114.603 38.7198 116.169 38.1231 117.818 37.5768C119.451 37.0389 121.151 36.5682 122.919 36.1564C124.678 35.7446 126.496 35.4 128.364 35.1142C130.207 34.8369 132.109 34.6184 134.079 34.4671C140.357 33.9796 147.191 34.1729 154.303 35.1646C160.935 36.0976 167.802 37.728 174.678 40.157C180.494 42.2161 186.318 44.8383 192.016 48.0909C194.28 49.3852 196.535 50.7804 198.757 52.2848C197.587 50.7551 196.384 49.2507 195.13 47.7715C191.545 43.5608 187.606 39.6107 183.339 35.9799C178.71 32.0381 173.685 28.4662 168.307 25.3397C163.056 22.2804 157.45 19.6414 151.534 17.473C145.786 15.3635 139.987 13.8002 134.188 12.7412C128.238 11.657 122.279 11.1023 116.379 11.0519C110.387 11.0015 104.428 11.4805 98.5706 12.4471C92.7718 13.4052 87.0824 14.8508 81.5614 16.7418L81.5445 16.7586ZM127.514 155.569C128.684 155.989 129.736 156.376 130.645 156.72C131.739 157.132 132.791 157.544 133.767 157.939C134.39 158.258 135.206 158.552 135.871 158.838H135.888C136.208 158.981 136.587 159.149 136.991 159.334C137.479 159.561 137.958 159.779 138.447 160.006C138.817 160.183 139.196 160.359 139.583 160.561C140.61 161.074 141.586 161.586 142.503 162.099C143.446 162.629 144.372 163.183 145.272 163.755C146.156 164.318 147.014 164.906 147.856 165.528C148.714 166.167 149.506 166.797 150.229 167.419C151.761 168.756 153.217 170.142 154.581 171.563C155.944 172.991 157.198 174.445 158.351 175.933C159.521 177.437 160.573 178.967 161.507 180.488C162.467 182.052 163.291 183.623 164.007 185.195C164.672 186.674 165.244 188.17 165.707 189.675C166.178 191.187 166.54 192.7 166.792 194.196C167.045 195.701 167.188 197.213 167.23 198.726C167.272 200.256 167.196 201.744 167.02 203.189C166.919 203.996 166.784 204.828 166.599 205.677C166.523 206.03 166.447 206.374 166.363 206.719C169.62 204.912 172.793 202.92 175.865 200.752C180.132 197.743 184.18 194.423 187.968 190.792C191.898 187.027 195.559 182.926 198.9 178.513C202.149 174.227 205.086 169.638 207.687 164.78C207.998 163.738 208.284 162.662 208.545 161.544C208.815 160.385 209.042 159.225 209.227 158.082C209.412 156.905 209.564 155.728 209.665 154.56C209.766 153.392 209.833 152.207 209.858 151.013C209.892 149.333 209.858 147.685 209.782 146.063C209.698 144.416 209.555 142.836 209.362 141.323C209.168 139.835 208.916 138.365 208.613 136.911C208.318 135.507 207.956 134.12 207.552 132.759C207.157 131.431 206.711 130.145 206.222 128.901C205.726 127.649 205.196 126.447 204.623 125.287C204.051 124.136 203.428 123.009 202.763 121.892C202.082 120.765 201.392 119.715 200.685 118.723C197.007 113.764 192.395 109.52 187.143 105.847C181.849 102.141 175.882 98.9891 169.536 96.2324C163.157 93.4588 156.382 91.0803 149.514 88.9372C142.562 86.7604 135.619 84.8441 128.894 82.9951L124.939 81.9025C123.365 81.4655 122.018 81.0957 121.151 80.8436C119.939 80.5074 118.955 80.2216 118.273 80.0283C117.591 79.835 116.674 79.5661 115.445 79.2047L105.825 76.1958L105.792 76.179L104.815 75.8512L102.913 75.1873L101.971 74.8427C100.321 74.2628 98.8062 73.6492 97.2997 73.0357C96.8705 72.8592 96.4413 72.6743 96.012 72.4894C95.4061 72.2289 94.9432 72.0356 94.7412 71.9515L94.4214 71.8086L94.253 71.6405L94.1941 71.7498L92.2668 70.8001C91.9975 70.674 91.7198 70.548 91.4504 70.3883C90.4321 69.884 89.4726 69.3797 88.5637 68.867C87.6211 68.3375 86.6953 67.7828 85.7947 67.2113C84.9194 66.6482 84.0526 66.0599 83.211 65.438C82.3525 64.7992 81.5614 64.1689 80.8376 63.5469C79.3058 62.2106 77.8498 60.8323 76.4864 59.4035C75.123 57.9747 73.8689 56.5123 72.7159 55.0331C71.5461 53.5287 70.494 52.0074 69.5598 50.4778C68.6004 48.9146 67.7672 47.3429 67.0602 45.7712C66.3953 44.292 65.8231 42.796 65.3602 41.2916C64.8888 39.7788 64.5269 38.2659 64.2745 36.7699C64.022 35.2655 63.8789 33.7527 63.8368 32.2399C63.7947 30.7102 63.8705 29.2226 64.0472 27.777C64.1482 26.9702 64.2829 26.1381 64.468 25.2893C64.5438 24.9363 64.6195 24.5917 64.7037 24.2471C61.4466 26.0541 58.2737 28.046 55.2018 30.2143C50.9347 33.2232 46.8866 36.5514 43.0993 40.1738C39.1689 43.939 35.5078 48.0405 32.1666 52.4529C28.9179 56.7392 25.9722 61.3281 23.38 66.186C23.0686 67.2281 22.7825 68.3039 22.5216 69.4217C22.2523 70.5816 22.025 71.7414 21.8399 72.8844C21.6547 74.0611 21.5032 75.2377 21.3938 76.406C21.2928 77.5742 21.2255 78.7592 21.2002 79.9527C21.1666 81.642 21.2002 83.3061 21.276 84.945C21.3602 86.5755 21.5032 88.1472 21.6968 89.6432C21.8904 91.1308 22.1429 92.6016 22.4458 94.0556C22.7404 95.4591 23.1023 96.8459 23.5063 98.2074C23.9019 99.5354 24.3479 100.821 24.8361 102.065C25.3326 103.317 25.8628 104.519 26.4351 105.679C27.0074 106.831 27.6218 107.957 28.2951 109.075C28.9768 110.201 29.667 111.251 30.3739 112.243C34.0518 117.202 38.6639 121.446 43.9156 125.119C49.2094 128.825 55.1765 131.977 61.5224 134.734C74.3318 140.298 88.6815 144.256 102.164 147.979L105.093 148.786C113.24 151.022 118.997 152.602 127.506 155.56H127.531L127.514 155.569ZM214.361 81.4907C209.404 75.2629 203.992 69.9512 198.303 65.4716C192.075 60.5633 185.51 56.6468 178.878 53.6127C171.564 50.2677 164.15 48.0069 156.979 46.6621C149.177 45.1997 141.662 44.8299 134.878 45.3594C133.229 45.4855 131.604 45.6704 130.039 45.9057C128.44 46.1494 126.916 46.4352 125.477 46.7714C124.021 47.1076 122.624 47.4942 121.294 47.9312C119.973 48.3598 118.719 48.8389 117.532 49.3684C116.421 49.8559 115.403 50.3769 114.46 50.9232C113.526 51.4695 112.676 52.0326 111.927 52.621C111.203 53.1841 110.555 53.7808 109.983 54.4027C109.444 54.9911 108.981 55.5962 108.603 56.2265C108.157 56.9577 107.845 57.7226 107.677 58.5042C107.509 59.269 107.467 60.0758 107.559 60.9331C107.652 61.782 107.887 62.6644 108.258 63.5721C108.577 64.3454 108.998 65.1438 109.537 65.9759C111.111 66.5053 112.676 67.0096 114.25 67.4971C116.11 68.077 117.962 68.6233 119.805 69.1612C121.656 69.6991 123.634 70.2622 125.688 70.8337C127.699 71.3968 129.736 71.9599 131.798 72.523C145.954 76.4312 161.019 80.583 174.678 86.6091C188.498 92.7024 200.87 100.704 209.437 112.268L209.513 112.378C210.447 113.672 211.314 114.975 212.105 116.286C212.913 117.622 213.679 119.017 214.403 120.48C215.118 121.925 215.783 123.413 216.389 124.942C216.995 126.48 217.542 128.052 218.03 129.666C218.283 130.506 218.519 131.364 218.737 132.229C219.007 130.557 219.242 128.884 219.436 127.203C219.983 122.362 220.193 117.546 220.067 112.781C219.924 107.394 219.36 102.048 218.401 96.7955C217.45 91.593 216.095 86.4746 214.378 81.4907H214.361ZM16.6723 149.509C21.6295 155.737 27.0411 161.049 32.7305 165.528C38.9585 170.436 45.5231 174.353 52.1551 177.387C59.4688 180.732 66.8835 182.993 74.0541 184.338C81.8559 185.8 89.3716 186.17 96.1551 185.64C97.8047 185.514 99.4206 185.329 100.994 185.094C102.594 184.85 104.117 184.565 105.556 184.228C107.012 183.892 108.409 183.506 109.747 183.069C111.069 182.64 112.323 182.161 113.509 181.631C114.62 181.144 115.639 180.623 116.581 180.076C117.515 179.53 118.366 178.967 119.115 178.379C119.838 177.816 120.486 177.219 121.059 176.597C121.597 176.009 122.06 175.404 122.439 174.773C122.885 174.042 123.196 173.277 123.365 172.496C123.533 171.731 123.575 170.924 123.483 170.067C123.39 169.218 123.154 168.335 122.784 167.428C122.464 166.654 122.043 165.856 121.513 165.032C119.939 164.503 118.374 163.999 116.8 163.511C114.94 162.931 113.089 162.385 111.245 161.847C109.394 161.309 107.416 160.746 105.362 160.174C103.351 159.611 101.314 159.048 99.2439 158.485C92.1658 156.535 84.8605 154.518 77.7067 152.266C70.452 149.98 63.2561 147.433 56.4305 144.424C49.5377 141.39 42.9983 137.869 37.0985 133.675C31.1651 129.447 25.9049 124.539 21.6042 118.731L21.5285 118.622C20.5943 117.328 19.7274 116.025 18.9363 114.714C18.1283 113.378 17.3625 111.983 16.6387 110.52C15.9233 109.075 15.2584 107.587 14.6524 106.057C14.0465 104.519 13.4994 102.948 13.0113 101.334C12.7588 100.493 12.5231 99.6362 12.3043 98.7705C12.035 100.443 11.7993 102.116 11.6058 103.796C11.0587 108.638 10.8483 113.453 10.9745 118.219C11.1176 123.606 11.6815 128.951 12.641 134.204C13.592 139.407 14.947 144.525 16.6639 149.509H16.6723ZM7.1115 75.784C7.55756 74.5737 8.02045 73.3803 8.49176 72.2037C8.92098 71.1447 9.42596 69.9596 10.0067 68.6569C10.5032 67.5307 11.0419 66.3709 11.6142 65.2026C12.1191 64.1521 12.6746 63.0595 13.2638 61.9333L13.5499 61.0508L13.6509 60.8659C20.2997 48.4691 29.0105 37.6692 39.1857 28.752C49.6302 19.5994 61.6234 12.4303 74.5086 7.53878C87.2844 2.68934 100.961 0.0755106 114.906 -0.000130676C128.339 -0.0757719 142.007 2.20187 155.346 7.08493C164.907 10.5896 173.736 15.229 181.74 20.8012C189.996 26.55 197.343 33.282 203.689 40.7621C210.17 48.4019 215.607 56.8233 219.882 65.7825C224.166 74.7502 227.297 84.2726 229.157 94.1144C230.007 98.6193 230.587 103.83 230.84 109.175C231.092 114.453 231.033 119.858 230.629 124.808C230.217 129.91 229.443 135.053 228.307 140.205C227.187 145.256 225.731 150.265 223.913 155.216C223.467 156.426 223.004 157.619 222.533 158.796C222.104 159.855 221.599 161.04 221.018 162.334C220.522 163.469 219.983 164.62 219.411 165.797C218.906 166.848 218.35 167.94 217.761 169.066L217.475 169.941L217.382 170.125C210.734 182.539 202.023 193.339 191.848 202.248C181.403 211.4 169.41 218.57 156.525 223.461C143.749 228.31 130.072 230.916 116.127 230.991C102.695 231.067 89.0266 228.789 75.6869 223.906C66.126 220.402 57.2974 215.762 49.2936 210.19C41.0373 204.441 33.6899 197.709 27.3441 190.229C17.2867 178.37 9.98143 165.058 5.46192 150.971C0.849828 136.6 -0.850249 121.429 0.395352 106.192C0.807747 101.09 1.58204 95.9466 2.71823 90.7946C3.83759 85.7434 5.29359 80.7343 7.1115 75.784Z" fill="url(#paint0_linear_53_54259)"/>
<defs>
<linearGradient id="paint0_linear_53_54259" x1="-0.000210265" y1="115.504" x2="231" y2="115.504" gradientUnits="userSpaceOnUse">
<stop stop-color="#E6665C"/>
<stop offset="0.2" stop-color="#A5469A"/>
<stop offset="0.51" stop-color="#603193"/>
<stop offset="0.72" stop-color="#454B9F"/>
<stop offset="1" stop-color="#0F8ACB"/>
</linearGradient>
</defs>
</svg>
